<?xml version="1.0" encoding="UTF-8"?>
<svg id="_레이어_1" data-name="레이어 1" xmlns="http://www.w3.org/2000/svg" xmlns:xlink="http://www.w3.org/1999/xlink" viewBox="0 0 1024 1024" width="32"
  height="32">
  <defs>
    <style>
      .cls-1 {
        fill: url(#_무제_그라디언트_13);
      }

      .cls-2 {
        fill: url(#_무제_그라디언트_49);
      }
    </style>
    <linearGradient id="_무제_그라디언트_13" data-name="무제 그라디언트 13" x1="204.37" y1="-20.83" x2="819.63" y2="1044.83" gradientUnits="userSpaceOnUse">
      <stop offset="0" stop-color="#412a2a"/>
      <stop offset=".37" stop-color="#3a2625"/>
      <stop offset=".89" stop-color="#271a18"/>
      <stop offset="1" stop-color="#231815"/>
    </linearGradient>
    <linearGradient id="_무제_그라디언트_49" data-name="무제 그라디언트 49" x1="308.01" y1="263.41" x2="672.75" y2="895.15" gradientUnits="userSpaceOnUse">
      <stop offset="0" stop-color="#fff"/>
      <stop offset=".3" stop-color="#fcfcfc"/>
      <stop offset=".51" stop-color="#f2f2f3"/>
      <stop offset=".69" stop-color="#e3e3e3"/>
      <stop offset=".86" stop-color="#cdcdcd"/>
      <stop offset="1" stop-color="#b5b5b6"/>
    </linearGradient>
  </defs>
  <rect class="cls-1" width="1024" height="1024" rx="230" ry="230"/>
  <path class="cls-2" d="M202.41,718.93c-.38-.81.02-1.67.86-1.97,28.84-10.06,69.37-56.04,74.9-62.43.35-.41,1.03-.55,1.51-.31l26.43,12.77,26.43,12.77c.48.23.8.85.7,1.38-1.57,8.3-12.4,68.63-2.36,97.47.3.85-.15,1.7-1.03,1.91-11.35,2.71-75.51,23.72-106.01,68.96-1.53,2.27-3.4,3.22-3.16,2.74l30.78-63.71c2.83-5.86,10.4-11.51,16.87-12.19,2.79-.29,5.91-.2,9.6.18,1.9.2,2.37-.78,1.04-2.15-9.58-9.81-11.28-15.93-8.36-31.06.51-2.64-.47-3.11-2.22-1.07-10.88,12.69-16.84,14.52-33.18,12.32,3.89,3.75,6.75,6.89,8.72,10,3.49,5.49,3.77,14.93.94,20.79l-30.78,63.71c-.22.48-.97-1.25.18-4.18,19.93-50.84-6.96-115.42-11.87-125.94ZM349.09,673.24l162.91-334.97v-192.63s-237.5,491.56-237.5,491.56c-.38.79-.23,1.66.34,1.93l72.52,35.04c.57.28,1.35-.14,1.73-.93ZM746.89,645.95c-17.72,58.97-32.08,78.77-74.84,103.19,42.77,24.43,57.13,44.23,74.84,103.19,17.72-58.97,32.08-78.77,74.84-103.19-42.77-24.43-57.13-44.23-74.84-103.19ZM856.23,464.29c-351.5,201.83-688.46,0-688.46,0,368.04,283.55,688.46,0,688.46,0Z"/>
</svg>