<?xml version="1.0" encoding="UTF-8"?>
<svg id="_레이어_1" data-name="레이어 1" xmlns="http://www.w3.org/2000/svg" viewBox="0 0 147.85 43.35">
  <defs>
    <style>
      .cls-1 {
        fill: #412a2a;
      }
    </style>
  </defs>
  <g>
    <path class="cls-1" d="M0,43.35L9.77,15.07h7.54l9.79,28.28h-6.31l-7.13-21.89h-.23l-7.15,21.89H0Z"/>
    <path class="cls-1" d="M46.81,22.23c-.55-.76-1.27-1.34-2.16-1.75-.89-.4-1.87-.61-2.95-.61-1.47,0-2.76.37-3.86,1.1-1.1.74-1.96,1.8-2.57,3.2-.61,1.4-.92,3.08-.92,5.03s.31,3.7.92,5.09c.61,1.39,1.47,2.44,2.57,3.16,1.1.72,2.37,1.08,3.8,1.08,1.08,0,2.05-.2,2.92-.59.87-.39,1.58-.95,2.16-1.67.57-.72.95-1.58,1.13-2.59l5.96.06c-.22,1.77-.86,3.42-1.9,4.94-1.05,1.52-2.46,2.74-4.23,3.66-1.77.92-3.81,1.38-6.11,1.38-2.53,0-4.79-.58-6.78-1.73s-3.55-2.83-4.68-5.02c-1.13-2.19-1.69-4.79-1.69-7.78s.57-5.62,1.71-7.81c1.14-2.19,2.7-3.85,4.69-5,1.99-1.15,4.23-1.72,6.75-1.72,2.17,0,4.14.4,5.9,1.21s3.19,1.98,4.29,3.53c1.1,1.54,1.79,3.38,2.06,5.52h-5.96c-.14-1.04-.49-1.94-1.04-2.71Z"/>
    <path class="cls-1" d="M57.91,15.07h5.86v11.72h12.27v-11.72h5.86v28.28h-5.86v-11.74h-12.27v11.74h-5.86V15.07Z"/>
    <path class="cls-1" d="M92.54,43.35h-5.86V15.07h5.86v28.28Z"/>
    <path class="cls-1" d="M109.14,36.63h.27l6.89-21.56h6.52l-9.79,28.28h-7.54l-9.77-28.28h6.5l6.89,21.56Z"/>
    <path class="cls-1" d="M120.76,43.35l9.77-28.28h7.54l9.79,28.28h-6.31l-7.13-21.89h-.23l-7.15,21.89h-6.27Z"/>
  </g>
  <path class="cls-1" d="M94.32,6.49c-2.69,1.54-3.59,2.78-4.71,6.49-1.11-3.71-2.02-4.95-4.71-6.49,2.69-1.54,3.59-2.78,4.71-6.49,1.11,3.71,2.02,4.95,4.71,6.49Z"/>
</svg>